# xmcd
#
# Track frame offsets: 
#        182
#        12957
#        25087
#        36517
#        48447
#        60612
#        70910
#        84880
#        96570
#        107325
#        119132
#        130292
#        142000
#        152200
#        161812
#        172245
#        182767
#        195262
#        205885
#        214935
#        226097
#        235305
#        245182
#        255545
#        266382
#
# Disc length: 3711 seconds
#
# Revision: 4
# Processed by: cddbd v1.5.2PL0 Copyright (c) Steve Scherf et al.
# Submitted via: ExactAudioCopy v0.95b4
#
DISCID=6e0e7d19
DTITLE=The Stanley Brothers and The Clinch Mountain Boys - 1953-58 and 195
DTITLE=9 - Disc 1
DYEAR=1993
DGENRE=Bluegrass
TTITLE0=(Say) Won't You Be Mine
TTITLE1=This Weary Heart You Stole Away
TTITLE2=I'm Lonesome Without You
TTITLE3=Our Last Goodbye [take 4]
TTITLE4=Poison Lies
TTITLE5=Dickson County Breakdown [instrumental]
TTITLE6=I Long To See The Old Folks
TTITLE7=A Voice From On High
TTITLE8=Memories Of Mother
TTITLE9=Could You Love Me (One More Time)
TTITLE10=Nobody's Love Is Like Mine
TTITLE11=I Just Got Wise
TTITLE12=Blue Moon Of Kentucky
TTITLE13=Close By
TTITLE14=Calling From Heaven
TTITLE15=Harbor Love
TTITLE16=Hard Times [instrumental]
TTITLE17=Baby Girl
TTITLE18=Say You'll Take Me Back
TTITLE19=I Worship You
TTITLE20=You're Still On My Mind
TTITLE21=I Hear My Savior Calling
TTITLE22=Just A Little Talk With Jesus
TTITLE23=So Blue
TTITLE24=Our Last Goodbye
EXTD=Bear Family - BCD-15681-BH\nTitle includes year of release
EXTT0=
EXTT1=
EXTT2=
EXTT3=
EXTT4=
EXTT5=
EXTT6=
EXTT7=
EXTT8=
EXTT9=
EXTT10=
EXTT11=
EXTT12=
EXTT13=
EXTT14=
EXTT15=
EXTT16=
EXTT17=
EXTT18=
EXTT19=
EXTT20=
EXTT21=
EXTT22=
EXTT23=
EXTT24=
PLAYORDER=
